<svg width="179" height="150" viewBox="0 0 179 150" fill="none" xmlns="http://www.w3.org/2000/svg">
<rect width="178.402" height="150" fill="white"/>
<path d="M61.4469 39.4545V54H59.2523V39.4545H61.4469ZM64.6429 39.4545H67.3063L71.937 50.7614H72.1074L76.7381 39.4545H79.4015V54H77.3134V43.4744H77.1784L72.8887 53.9787H71.1557L66.8659 43.4673H66.731V54H64.6429V39.4545ZM83.8208 54H81.4913L86.7257 39.4545H89.2612L94.4956 54H92.166L88.0538 42.0966H87.9402L83.8208 54ZM84.2115 48.304H91.7683V50.1506H84.2115V48.304ZM105.756 44.0497C105.619 43.6188 105.434 43.233 105.202 42.892C104.975 42.5464 104.703 42.2528 104.385 42.0114C104.068 41.7652 103.706 41.5781 103.299 41.4503C102.896 41.3224 102.454 41.2585 101.971 41.2585C101.152 41.2585 100.413 41.4692 99.7548 41.8906C99.0967 42.312 98.5758 42.9299 98.1923 43.7443C97.8135 44.554 97.6241 45.5459 97.6241 46.7202C97.6241 47.8991 97.8159 48.8958 98.1994 49.7102C98.5829 50.5246 99.1085 51.1425 99.7761 51.5639C100.444 51.9853 101.204 52.196 102.056 52.196C102.847 52.196 103.536 52.035 104.123 51.7131C104.715 51.3911 105.171 50.9366 105.493 50.3494C105.82 49.7576 105.983 49.0616 105.983 48.2614L106.552 48.3679H102.39V46.5568H108.107V48.2116C108.107 49.4332 107.847 50.4938 107.326 51.3935C106.81 52.2884 106.095 52.9796 105.181 53.4673C104.272 53.955 103.23 54.1989 102.056 54.1989C100.74 54.1989 99.5843 53.8958 98.59 53.2898C97.6004 52.6837 96.8287 51.8243 96.2747 50.7116C95.7207 49.5942 95.4437 48.2685 95.4437 46.7344C95.4437 45.5743 95.6047 44.5327 95.9267 43.6094C96.2486 42.6861 96.7008 41.9025 97.2832 41.2585C97.8703 40.6098 98.5592 40.1151 99.35 39.7741C100.145 39.4285 101.014 39.2557 101.956 39.2557C102.742 39.2557 103.474 39.3717 104.151 39.6037C104.833 39.8357 105.439 40.1648 105.969 40.5909C106.504 41.017 106.947 41.5237 107.297 42.1108C107.648 42.6932 107.885 43.3395 108.008 44.0497H105.756ZM110.893 54V39.4545H120.012V41.3438H113.088V45.7756H119.536V47.6577H113.088V52.1108H120.097V54H110.893ZM81.4806 68.4545V83H79.4636L72.0701 72.3324H71.9352V83H69.7406V68.4545H71.7718L79.1724 79.1364H79.3074V68.4545H81.4806ZM97.3169 75.7273C97.3169 77.2803 97.0328 78.6155 96.4647 79.733C95.8965 80.8456 95.1176 81.7027 94.128 82.304C93.1432 82.9006 92.0234 83.1989 90.7686 83.1989C89.5092 83.1989 88.3846 82.9006 87.3951 82.304C86.4102 81.7027 85.6337 80.8433 85.0655 79.7259C84.4973 78.6084 84.2132 77.2756 84.2132 75.7273C84.2132 74.1742 84.4973 72.8414 85.0655 71.7287C85.6337 70.6113 86.4102 69.7543 87.3951 69.1577C88.3846 68.5563 89.5092 68.2557 90.7686 68.2557C92.0234 68.2557 93.1432 68.5563 94.128 69.1577C95.1176 69.7543 95.8965 70.6113 96.4647 71.7287C97.0328 72.8414 97.3169 74.1742 97.3169 75.7273ZM95.1436 75.7273C95.1436 74.5436 94.9519 73.5469 94.5684 72.7372C94.1896 71.9228 93.6687 71.3073 93.0059 70.8906C92.3477 70.4692 91.602 70.2585 90.7686 70.2585C89.9306 70.2585 89.1825 70.4692 88.5243 70.8906C87.8662 71.3073 87.3453 71.9228 86.9618 72.7372C86.583 73.5469 86.3936 74.5436 86.3936 75.7273C86.3936 76.911 86.583 77.91 86.9618 78.7244C87.3453 79.5341 87.8662 80.1496 88.5243 80.571C89.1825 80.9877 89.9306 81.196 90.7686 81.196C91.602 81.196 92.3477 80.9877 93.0059 80.571C93.6687 80.1496 94.1896 79.5341 94.5684 78.7244C94.9519 77.91 95.1436 76.911 95.1436 75.7273ZM98.7108 70.3438V68.4545H109.968V70.3438H105.43V83H103.242V70.3438H98.7108ZM38.899 112H36.5694L41.8038 97.4545H44.3393L49.5737 112H47.2441L43.1319 100.097H43.0183L38.899 112ZM39.2896 106.304H46.8464V108.151H39.2896V106.304ZM51.4221 97.4545L55.4703 109.301H55.6337L59.682 97.4545H62.0542L56.8198 112H54.2843L49.0499 97.4545H51.4221ZM63.899 112H61.5694L66.8038 97.4545H69.3393L74.5737 112H72.2441L68.1319 100.097H68.0183L63.899 112ZM64.2896 106.304H71.8464V108.151H64.2896V106.304ZM78.8688 97.4545V112H76.6742V97.4545H78.8688ZM82.0648 112V97.4545H84.2594V110.111H90.8503V112H82.0648ZM95.3248 112H92.9952L98.2296 97.4545H100.765L105.999 112H103.67L99.5577 100.097H99.4441L95.3248 112ZM95.7154 106.304H103.272V108.151H95.7154V106.304ZM108.1 112V97.4545H113.427C114.459 97.4545 115.314 97.625 115.991 97.9659C116.668 98.3021 117.174 98.759 117.51 99.3366C117.847 99.9096 118.015 100.556 118.015 101.276C118.015 101.882 117.903 102.393 117.681 102.81C117.458 103.222 117.16 103.553 116.786 103.804C116.417 104.05 116.01 104.23 115.564 104.344V104.486C116.047 104.509 116.519 104.666 116.978 104.955C117.442 105.239 117.825 105.643 118.128 106.169C118.431 106.695 118.583 107.334 118.583 108.087C118.583 108.83 118.408 109.498 118.057 110.089C117.712 110.677 117.177 111.143 116.452 111.489C115.728 111.83 114.802 112 113.675 112H108.1ZM110.295 110.118H113.462C114.513 110.118 115.266 109.914 115.721 109.507C116.175 109.1 116.403 108.591 116.403 107.98C116.403 107.521 116.287 107.099 116.055 106.716C115.823 106.332 115.491 106.027 115.06 105.8C114.634 105.572 114.127 105.459 113.54 105.459H110.295V110.118ZM110.295 103.747H113.235C113.727 103.747 114.17 103.652 114.563 103.463C114.961 103.274 115.276 103.009 115.508 102.668C115.744 102.322 115.863 101.915 115.863 101.446C115.863 100.845 115.652 100.34 115.231 99.9332C114.809 99.526 114.163 99.3224 113.292 99.3224H110.295V103.747ZM121.186 112V97.4545H123.381V110.111H129.971V112H121.186ZM132.475 112V97.4545H141.594V99.3438H134.67V103.776H141.118V105.658H134.67V110.111H141.68V112H132.475Z" fill="#666666"/>
</svg>
